<svg version="1" xmlns="http://www.w3.org/2000/svg" width="2133.333" height="2133.333" viewBox="0 0 1600.000000 1600.000000"><path d="M311.9 200.4c-.2.2-2.2.6-4.4.9-12.6 1.6-25.2 5.5-38.4 12.1-31.3 15.4-56 45.6-64.7 78.8-1.7 6.8-1.8 7.2-3.3 16.3-.6 3.9-1 177.8-1 492.5.1 422.7.3 487.5 1.6 494 .8 4.1 1.6 8.4 1.7 9.5 1.6 9.4 9.7 27.4 17.7 39.6 13.9 20.9 37.3 39.6 59.9 47.8 1.9.7 4.4 1.7 5.5 2.1 2.4 1 8.8 2.5 17.5 4.2 5.2 1 103.9 1.3 495 1.3 268.7 0 490.8-.3 493.7-.7 10.9-1.5 25.5-6 36-11.1 13.9-6.7 23-13.3 34.9-25.2 18.8-18.8 30.8-42.3 35.1-69 1-6.1 1.1-979.2.1-985.5-3.1-20.3-9.5-36.7-21-53.9-6.3-9.4-23-26.1-32.3-32.3-13.3-8.8-28.5-15.5-41.7-18.3-4-.9-8.2-1.9-9.3-2.3-2.1-.7-981.8-1.5-982.6-.8zm974.6 50.6c21.6 3.6 39.2 15 51 33 5.5 8.4 6.9 11.6 11.3 26.4.3 1.2.8 33 .9 70.8l.4 68.8H249.9l.4-68.8c.1-37.8.6-70 1-71.5 8-30.4 27.6-50.3 57.2-57.8 6.7-1.7 30.4-1.7 490-1.8 265.7 0 485.3.4 488 .9zm63.2 642.7c-.1 216.6-.5 394.7-.9 395.9-.3 1.1-1.3 4.3-2.1 7-7.8 26.3-31.4 47.5-58.2 52.2-2.2.4-222.5.7-489.5.7-474.5 0-485.7 0-492.5-1.9-26.5-7.2-45.9-26.3-54.2-53.3-1.7-5.5-1.8-24.6-2-400.1L250 500h1100l-.3 393.7z"/><path d="M388 301.6c-9 2.4-16.1 6.5-23.1 13.4-25.8 25.5-16.1 69.1 18.1 81.7 10 3.7 24.4 4 33.2.5 29.1-11.1 41.6-42.3 28.2-69.9-5.2-10.8-17.7-21.5-29.2-24.9-7.6-2.2-20.3-2.6-27.2-.8zM536.1 302.1c-23.7 6.8-38.9 30.4-35.3 55 1.6 11.1 6 19.7 14.2 28 26.5 26.5 69.8 16 82.6-20.1 2.3-6.6 2.7-19.4.9-26-.8-3-1.7-6.3-2-7.3-.8-3.4-5.8-11.1-10.3-16-5.1-5.4-13.4-10.7-20.7-13.2-7.3-2.5-21.4-2.7-29.4-.4zM691 300.6c-9.8 2-21.2 8.5-28.2 16.3-15.5 17.3-16.8 44.1-2.9 62.4 18.8 24.9 53.3 27.5 75.1 5.7 10.6-10.6 15.1-22.1 14.5-37-.8-21-13.5-38.3-33.1-45.1-5.8-1.9-20.3-3.3-25.4-2.3zM901 592.3c0 .2-1.6 4.8-3.6 10.3-4.7 13-8.9 24.8-12.9 36.2-1.8 5.1-3.5 9.5-3.9 9.9-.3.3-.6 1.3-.6 2.1s-.6 2.8-1.4 4.5c-.7 1.8-2.8 7.2-4.6 12.2-6.2 17.4-7.9 22.1-12.4 34.5-2.4 6.9-7.7 21.5-11.6 32.5-4 11-8.8 24.3-10.7 29.5-1.9 5.2-3.6 9.9-3.7 10.5-.2.5-.7 2.1-1.3 3.5-.6 1.4-2 5.2-3.1 8.5-4.3 12.3-11.1 31.2-13.7 38-1.4 3.8-2.8 7.7-3 8.5-.3 1.4-6.7 19-8.5 23.5-.5 1.1-4.3 11.7-8.5 23.5-4.1 11.8-7.8 22.2-8.2 23-.3.8-.7 1.9-.8 2.5-.4 1.4-8.4 23.5-9.5 26-.7 1.7-8.1 22.3-30 83.5-2.1 5.8-6.1 17-8.9 25-2.9 8-5.6 15.4-6.1 16.5-.4 1.1-3.3 9-6.3 17.5-11 30.9-19.2 53.6-29.7 82.5-3.4 9.3-6.3 17.4-6.4 18-.2.5-.6 1.7-.9 2.5-1.4 3.3-11.9 32.7-12.9 35.8-.5 1.9-.8 3.5-.6 3.7.5.5 44.9 16.5 45.8 16.5.7 0 10.4-26.3 27.6-75 3-8.5 5.9-16.4 6.4-17.5.5-1.1 6.4-17.3 13.1-36 6.7-18.7 15.9-44.6 20.6-57.5 4.7-12.9 8.9-24.6 9.3-26 .4-1.4 2.5-7 4.5-12.5s5.8-16.1 8.4-23.5c10-28.1 21.3-59.6 22.1-61.5.4-1.1 1.5-3.8 2.3-6 2.2-5.5 13.7-37.6 14.1-39.5.3-.8 1.8-5.1 3.4-9.5 2.8-7.3 14.4-39.3 19-52.5 8-22.5 17.5-48.9 18.3-51 .6-1.4 2.7-7 4.5-12.5 1.9-5.5 3.9-10.9 4.3-12 1.2-2.6 5.3-14.2 9.7-27 1.9-5.5 4.1-11.6 4.9-13.5.8-1.9 5.8-15.7 11-30.5 5.3-14.9 10-27.9 10.5-29 .4-1.1 2.2-6.1 4-11 1.7-5 3.8-10.6 4.6-12.5.8-1.9 1.6-4.8 1.7-6.4.2-2.7-.2-3-5.8-4.8-3.3-1-6.9-2.3-8-2.8-3.3-1.5-30.6-11-31.6-11-.5 0-.9.1-.9.3zM576.8 708.4c-1.4 1.1-5.3 4.6-8.8 7.6-3.5 3-8.1 7.1-10.3 9-3.8 3.3-19.8 17.3-22.3 19.5-.6.5-3.7 3.2-6.9 6-3.2 2.7-7 6.1-8.5 7.5-1.5 1.4-5.1 4.6-8.1 7.2-15.4 13.2-21.1 18.2-24 20.9-1.5 1.4-4.9 4.4-7.5 6.5-2.6 2.1-5.2 4.4-5.8 5-.6.5-4.9 4.3-9.6 8.4-4.7 4.1-10.1 8.9-12 10.6-7.9 7-14.9 13.2-21 18.4-3.5 3-8.7 7.5-11.5 10-2.8 2.5-8.4 7.4-12.5 11-10 8.8-13.7 12.7-16.7 17.8-9.9 16.8-9.9 35.6 0 52.4 3 5 6.9 9.2 15.6 16.8 3.5 3 6.9 6 7.5 6.5.6.6 6.1 5.3 12.1 10.5 6.1 5.2 11.5 10 12 10.6.6.6 4.2 3.7 8 7 3.9 3.2 7.5 6.4 8 7 .6.6 4.6 4.2 9 7.9 4.4 3.8 8.2 7.1 8.5 7.4.3.4 3.4 3.1 7 6.1 3.6 3 7 6 7.5 6.6.6.6 9.8 8.7 20.5 18 18 15.6 22.4 19.5 28.4 24.9 1.3 1.1 4.7 4.1 7.7 6.7 3 2.5 12.3 10.7 20.8 18.1l15.4 13.4 11.5-13.1c6.3-7.2 12.8-14.7 14.5-16.6 1.6-1.9 3.9-4.5 5-5.7l2-2.2-3.3-2.7c-1.8-1.5-3.7-3.2-4.4-3.8-.6-.6-4.7-4.3-9.1-8.1-4.4-3.9-9.5-8.4-11.5-10.1-1.9-1.7-9.1-8-16-14s-12.7-11.1-13-11.4c-.3-.3-9.5-8.4-20.5-18s-21.6-18.9-23.5-20.6c-1.9-1.7-11.4-10-21-18.4-27-23.5-30.1-26.2-35.5-31-11.9-10.5-18.8-16.5-19.9-17.3-.7-.5-.3-1.4 1.4-2.8 1.4-1.2 5.4-4.7 9-7.9 3.6-3.1 8.8-7.7 11.6-10.1 7.8-6.8 18.6-16.3 19.8-17.4 1.1-1 21.4-18.7 27-23.5 1.6-1.4 3.7-3.2 4.6-4 1.4-1.3 10.5-9.3 19.5-17.1 1.6-1.5 5.5-4.8 8.5-7.5 3-2.6 6.6-5.7 7.9-6.9 1.3-1.1 3.4-2.9 4.6-4 1.3-1.1 6.7-5.8 12.1-10.5 5.4-4.7 10.5-9.2 11.4-10 .8-.8 4.7-4.2 8.5-7.5 3.9-3.3 7.2-6.2 7.5-6.5.3-.3 5.8-5.2 12.3-10.9 11.8-10.3 11.8-10.3 9.9-12.5-1-1.1-6.7-7.7-12.7-14.6-6-6.9-11.2-12.7-11.5-13-.3-.3-1.9-2.1-3.6-4.1l-3.1-3.7-2.5 2.2zM1021.2 724.5c-9.5 9.7-17.2 17.9-17.2 18.4 0 .4 7.5 8.1 16.8 17.1 9.2 8.9 32.4 31.6 51.6 50.4 19.2 18.7 38.5 37.6 43 42 4.4 4.3 17.3 16.9 28.4 27.8l20.4 20-8.5 8.2c-4.7 4.4-22.1 21.4-38.7 37.6-16.6 16.2-35.4 34.6-41.8 40.9-44.7 43.4-71.2 69.6-71.2 70.2 0 .4 7.7 8.6 17.1 18.3l17.2 17.6 13.1-12.9c7.2-7.1 18.3-18 24.8-24.3 6.4-6.2 27-26.4 45.9-44.8 18.8-18.4 36.5-35.7 39.3-38.4 18.5-17.7 40.5-39.8 42.9-42.9 2.7-3.6 7.3-13 8.4-17.2 1.3-4.7 1.1-20.3-.3-25.5-3.4-12.8-7.5-17.6-54.4-63-5.8-5.6-24.2-23.6-41-40s-35.9-35.1-42.5-41.5c-6.6-6.4-17.4-17-24.1-23.6l-12-11.9-17.2 17.5z"/></svg>